<svg width="1600" height="1200" viewBox="0 0 1600 1200" fill="none" xmlns="http://www.w3.org/2000/svg">
  <rect width="1600" height="1200" fill="#0A0A0A"/>
  <g opacity="0.08">
    <path d="M0 80H1600" stroke="white"/>
    <path d="M0 160H1600" stroke="white"/>
    <path d="M0 240H1600" stroke="white"/>
    <path d="M0 320H1600" stroke="white"/>
    <path d="M0 400H1600" stroke="white"/>
    <path d="M0 480H1600" stroke="white"/>
    <path d="M0 560H1600" stroke="white"/>
    <path d="M0 640H1600" stroke="white"/>
    <path d="M0 720H1600" stroke="white"/>
    <path d="M0 800H1600" stroke="white"/>
    <path d="M0 880H1600" stroke="white"/>
    <path d="M0 960H1600" stroke="white"/>
    <path d="M0 1040H1600" stroke="white"/>
    <path d="M0 1120H1600" stroke="white"/>
    <path d="M80 0V1200" stroke="white"/>
    <path d="M160 0V1200" stroke="white"/>
    <path d="M240 0V1200" stroke="white"/>
    <path d="M320 0V1200" stroke="white"/>
    <path d="M400 0V1200" stroke="white"/>
    <path d="M480 0V1200" stroke="white"/>
    <path d="M560 0V1200" stroke="white"/>
    <path d="M640 0V1200" stroke="white"/>
    <path d="M720 0V1200" stroke="white"/>
    <path d="M800 0V1200" stroke="white"/>
    <path d="M880 0V1200" stroke="white"/>
    <path d="M960 0V1200" stroke="white"/>
    <path d="M1040 0V1200" stroke="white"/>
    <path d="M1120 0V1200" stroke="white"/>
    <path d="M1200 0V1200" stroke="white"/>
    <path d="M1280 0V1200" stroke="white"/>
    <path d="M1360 0V1200" stroke="white"/>
    <path d="M1440 0V1200" stroke="white"/>
    <path d="M1520 0V1200" stroke="white"/>
  </g>
  <circle cx="405" cy="196" r="130" fill="#D9FF66" fill-opacity="0.05"/>
  <circle cx="1220" cy="800" r="180" fill="#8BE9FD" fill-opacity="0.05"/>
</svg>
