<svg width="640" height="320" viewBox="0 0 640 320" fill="none" xmlns="http://www.w3.org/2000/svg">
  <defs>
    <linearGradient id="line" x1="58" y1="0" x2="590" y2="0" gradientUnits="userSpaceOnUse">
      <stop stop-color="#D9FF66"/>
      <stop offset="1" stop-color="#8BE9FD"/>
    </linearGradient>
    <filter id="glow" x="0" y="0" width="640" height="320" filterUnits="userSpaceOnUse" color-interpolation-filters="sRGB">
      <feGaussianBlur stdDeviation="12" result="blur"/>
      <feMerge>
        <feMergeNode in="blur"/>
        <feMergeNode in="SourceGraphic"/>
      </feMerge>
    </filter>
  </defs>
  <rect x="20" y="20" width="600" height="280" rx="28" fill="#0D0F12" stroke="rgba(255,255,255,0.12)"/>
  <path d="M148 160H264" stroke="url(#line)" stroke-width="3" stroke-linecap="round" stroke-dasharray="8 10"/>
  <path d="M376 160H492" stroke="url(#line)" stroke-width="3" stroke-linecap="round" stroke-dasharray="8 10"/>

  <g filter="url(#glow)">
    <rect x="58" y="108" width="90" height="104" rx="22" fill="#12161B" stroke="#D9FF66" stroke-opacity="0.35"/>
    <rect x="90" y="124" width="26" height="46" rx="8" fill="#D9FF66" fill-opacity="0.95"/>
    <rect x="77" y="178" width="52" height="8" rx="4" fill="white" fill-opacity="0.82"/>
    <rect x="72" y="192" width="62" height="8" rx="4" fill="white" fill-opacity="0.35"/>
    <text x="103" y="228" fill="white" font-family="Arial, sans-serif" font-size="14" text-anchor="middle">Upload</text>
  </g>

  <g filter="url(#glow)">
    <rect x="264" y="92" width="112" height="136" rx="24" fill="#12161B" stroke="#8BE9FD" stroke-opacity="0.35"/>
    <path d="M287 171C305 120 336 120 353 171" stroke="#8BE9FD" stroke-width="5" stroke-linecap="round"/>
    <path d="M289 183C304 149 334 149 349 183" stroke="#D9FF66" stroke-width="4" stroke-linecap="round" opacity="0.9"/>
    <rect x="294" y="194" width="52" height="8" rx="4" fill="white" fill-opacity="0.38"/>
    <text x="320" y="244" fill="white" font-family="Arial, sans-serif" font-size="14" text-anchor="middle">Transcript</text>
  </g>

  <g filter="url(#glow)">
    <rect x="492" y="76" width="90" height="168" rx="22" fill="#12161B" stroke="#D9FF66" stroke-opacity="0.35"/>
    <rect x="514" y="102" width="46" height="10" rx="5" fill="#D9FF66"/>
    <rect x="514" y="122" width="54" height="8" rx="4" fill="white" fill-opacity="0.8"/>
    <rect x="514" y="138" width="42" height="8" rx="4" fill="white" fill-opacity="0.35"/>
    <rect x="514" y="166" width="54" height="10" rx="5" fill="#8BE9FD"/>
    <rect x="514" y="186" width="44" height="8" rx="4" fill="white" fill-opacity="0.8"/>
    <rect x="514" y="202" width="50" height="8" rx="4" fill="white" fill-opacity="0.35"/>
    <text x="537" y="262" fill="white" font-family="Arial, sans-serif" font-size="14" text-anchor="middle">Outputs</text>
  </g>
</svg>
